<?xml version="1.0" encoding="UTF-8" standalone="no"?>
<!DOCTYPE svg PUBLIC "-//W3C//DTD SVG 1.1//EN" "http://www.w3.org/Graphics/SVG/1.1/DTD/svg11.dtd">
<svg width="100%" height="100%" viewBox="0 0 93 88" version="1.1" xmlns="http://www.w3.org/2000/svg" xmlns:xlink="http://www.w3.org/1999/xlink" xml:space="preserve" style="fill-rule:evenodd;clip-rule:evenodd;stroke-linejoin:round;stroke-miterlimit:1.41421;">
    <g transform="matrix(0.146484,0,0,0.146484,46.5,44)">
        <g transform="matrix(1,0,0,1,-256,-256)">
            <g>
                <path d="M192,115.752C192,93.312 184.496,72.664 171.992,56L120,56C106.768,56 96,66.768 96,80L96,96C96,109.232 106.768,120 120,120L192,120L192,115.752Z" style="fill:rgb(240,127,42);fill-rule:nonzero;"/>
                <path d="M104,464C86.328,464 72,449.672 72,432L32,432C32,471.704 64.304,504 104,504C143.696,504 176,471.704 176,432L136,432C136,449.672 121.672,464 104,464Z" style="fill:rgb(240,127,42);fill-rule:nonzero;"/>
                <g>
                    <circle cx="136" cy="88" r="8" style="fill:rgb(70,73,71);"/>
                    <path d="M240,320C252.824,320 264.872,315.008 273.944,305.936L262.632,294.624C250.536,306.72 229.464,306.72 217.376,294.624C211.328,288.576 208,280.544 208,272C208,263.456 211.328,255.424 217.368,249.376C229.464,237.28 250.536,237.28 262.624,249.376L273.936,238.064C264.872,228.992 252.824,224 240,224C227.176,224 215.128,228.992 206.056,238.064C203.056,241.064 200.544,244.424 198.464,248L194.08,248C182.512,226.096 164.992,208.792 143.992,197.744L143.992,168L159.992,168C182.048,168 199.992,150.056 199.992,128L199.992,115.752C200,56.336 151.664,8 92.248,8C62.088,8 34.064,24.264 19.096,50.456C11.84,63.152 8,77.6 8,92.248L8,128C8,150.056 25.944,168 48,168L64,168L64,184.896C53.744,187 44.672,193.04 38.792,201.848C30.12,205.472 24,214.032 24,224L24,256C24,259.832 24.712,263.456 25.72,266.968L6.552,286.136L44.752,377.808C28.192,382.704 16,397.872 16,416L16,440L64.808,440C68.528,458.232 84.68,472 104,472C123.32,472 139.472,458.232 143.192,440L192,440L192,416C192,398.432 180.544,383.64 164.76,378.28L207.424,307.176C216.328,315.432 227.8,320 240,320ZM192.712,280L160,280L160,264L192.712,264C192.272,266.624 192,269.288 192,272C192,274.712 192.272,277.376 192.712,280ZM40,256L40,248L56,248L56,252.896L42.928,267.24C41.12,263.872 40,260.08 40,256ZM48,216C52.408,216 56,219.584 56,224L56,232L40,232L40,224C40,219.584 43.592,216 48,216ZM67.536,264L80,264L80,280L64,280C60.696,280 57.544,279.328 54.672,278.112L67.536,264ZM96,264L112,264L112,280L96,280L96,264ZM128,264L144,264L144,280L128,280L128,264ZM175.592,248L72,248L72,224C72,215.12 67.096,207.44 59.904,203.288C63.52,201.176 67.672,200 72,200L88,200C123.96,200 156.576,218.16 175.592,248ZM24,128L24,96L96,96L96,80L25.248,80C26.632,72.44 29.152,65.096 32.992,58.392C45.112,37.176 67.824,24 92.248,24C142.84,24 184,65.16 184,115.752L184,128C184,141.232 173.232,152 160,152L48,152C34.768,152 24,141.232 24,128ZM128,168L128,190.808C115.392,186.384 101.912,184 88,184L80,184L80,168L128,168ZM33.608,281.704C40.952,290.368 51.776,296 64,296L195.472,296L147.472,376L61.336,376L25.448,289.864L33.608,281.704ZM104,456C93.584,456 84.784,449.288 81.472,440L126.52,440C123.216,449.288 114.416,456 104,456ZM176,416L176,424L32,424L32,416C32,402.768 42.768,392 56,392L152,392C165.232,392 176,402.768 176,416Z" style="fill:rgb(70,73,71);fill-rule:nonzero;"/>
                    <path d="M504,416L504,352L482.856,352C481.16,346.736 479.04,341.624 476.536,336.72L491.48,321.776L446.224,276.528L431.24,291.512C428.976,290.392 426.576,289.328 424,288.296L424,175.2C458.2,159.576 480,125.928 480,88C480,56.792 464.672,27.424 439,9.448L436.936,8L408,8L408,64C408,68.416 404.408,72 400,72L368,72C363.592,72 360,68.416 360,64L360,8L331.064,8L329,9.448C303.328,27.424 288,56.792 288,88C288,125.928 309.8,159.576 344,175.2L344,288.288C341.424,289.32 339.016,290.392 336.76,291.504L321.776,276.52L276.52,321.768L291.464,336.712C288.96,341.616 286.84,346.728 285.144,351.992L264,351.992L264,415.992L285.144,415.992C286.84,421.256 288.96,426.368 291.464,431.272L276.52,446.216L321.776,491.464L336.72,476.52C341.624,479.032 346.736,481.144 352,482.848L352,504L416,504L416,482.856C421.264,481.152 426.376,479.04 431.28,476.528L446.224,491.472L491.48,446.224L476.536,431.28C479.04,426.376 481.16,421.264 482.856,416L504,416ZM470.656,400L469.112,406C467.056,413.976 463.904,421.584 459.752,428.616L456.592,433.96L468.856,446.224L446.224,468.848L433.96,456.592L428.624,459.744C421.584,463.904 413.976,467.048 406,469.104L400,470.656L400,488L368,488L368,470.656L362,469.104C354.024,467.048 346.416,463.904 339.376,459.744L334.04,456.592L321.776,468.848L299.144,446.224L311.408,433.96L308.248,428.616C304.096,421.584 300.944,413.976 298.888,406L297.344,400L280,400L280,368L297.344,368L298.888,362C300.944,354.024 304.096,346.416 308.248,339.384L311.408,334.04L299.144,321.776L321.776,299.152L334.04,311.408L339.376,308.256C343.656,305.736 348.512,303.536 354.672,301.36L360,299.48L360,164.448L354.912,162.456C323.984,150.368 304,121.144 304,88C304,62.832 315.984,39.088 336.176,24L344,24L344,64C344,77.232 354.768,88 368,88L400,88C413.232,88 424,77.232 424,64L424,24L431.824,24C452.016,39.088 464,62.832 464,88C464,121.144 444.016,150.368 413.088,162.456L408,164.448L408,299.48L413.336,301.36C419.496,303.536 424.352,305.736 428.632,308.256L433.968,311.408L446.232,299.152L468.864,321.776L456.6,334.04L459.76,339.384C463.912,346.416 467.064,354.024 469.12,362L470.656,368L488,368L488,400L470.656,400Z" style="fill:rgb(70,73,71);fill-rule:nonzero;"/>
                    <path d="M384,328C353.12,328 328,353.128 328,384C328,414.872 353.12,440 384,440C414.88,440 440,414.872 440,384C440,353.128 414.88,328 384,328ZM384,424C361.944,424 344,406.056 344,384C344,361.944 361.944,344 384,344C406.056,344 424,361.944 424,384C424,406.056 406.056,424 384,424Z" style="fill:rgb(70,73,71);fill-rule:nonzero;"/>
                    <rect x="344" y="104" width="16" height="16" style="fill:rgb(70,73,71);"/>
                    <rect x="376" y="104" width="16" height="16" style="fill:rgb(70,73,71);"/>
                    <rect x="408" y="104" width="16" height="16" style="fill:rgb(70,73,71);"/>
                </g>
            </g>
        </g>
    </g>
</svg>
