<?xml version="1.0" encoding="UTF-8" standalone="no"?>
<!DOCTYPE svg PUBLIC "-//W3C//DTD SVG 1.1//EN" "http://www.w3.org/Graphics/SVG/1.1/DTD/svg11.dtd">
<svg width="100%" height="100%" viewBox="0 0 674 605" version="1.1" xmlns="http://www.w3.org/2000/svg" xmlns:xlink="http://www.w3.org/1999/xlink" xml:space="preserve" style="fill-rule:evenodd;clip-rule:evenodd;stroke-linejoin:round;stroke-miterlimit:1.41421;">
    <g transform="matrix(0.165963,0,0,0.165963,1179.34,-3735.26)">
        <g transform="matrix(4.47364,0,0,4.47364,-9589.78,2765.04)">
            <path d="M1008,4527C1179.09,4527 1318,4665.91 1318,4837C1318,5008.09 1179.09,5147 1008,5147C836.906,5147 698,5008.09 698,4837C698,4665.91 836.906,4527 1008,4527ZM1008,4615.88C1130.04,4615.88 1229.12,4714.96 1229.12,4837C1229.12,4959.04 1130.04,5058.12 1008,5058.12C885.963,5058.12 786.884,4959.04 786.884,4837C786.884,4714.96 885.963,4615.88 1008,4615.88Z" style="fill:rgb(240,127,42);"/>
        </g>
        <g transform="matrix(3.58574,0,0,3.58574,-8694.78,7059.81)">
            <path d="M1008,4527C1179.09,4527 1318,4665.91 1318,4837C1318,5008.09 1179.09,5147 1008,5147C836.906,5147 698,5008.09 698,4837C698,4665.91 836.906,4527 1008,4527ZM1008,4560.03C1160.87,4560.03 1284.97,4684.14 1284.97,4837C1284.97,4989.86 1160.87,5113.97 1008,5113.97C855.135,5113.97 731.027,4989.86 731.027,4837C731.027,4684.14 855.135,4560.03 1008,4560.03Z" style="fill:rgb(249,145,33);"/>
        </g>
        <g transform="matrix(1.72781,0,0,1.72781,-5797.98,24137.7)">
            <g transform="matrix(0.865771,0,0,0.865771,-140.647,-26.6045)">
                <text x="281.903px" y="325.267px" style="font-family:'ArialMT', 'Arial', sans-serif;font-size:42.833px;fill:rgb(78,78,78);">T<tspan x="311.494px 338.742px 365.99px 381.317px 415.676px 442.924px 482.031px 509.279px 522.221px 549.469px 564.796px 592.044px 607.371px 639.367px 666.615px 681.942px 709.19px 726.881px 754.129px 771.819px 784.762px 809.605px 836.853px 852.18px 884.175px 911.423px 924.366px 951.614px 966.941px 979.884px 1007.13px " y="325.267px 325.267px 325.267px 325.267px 325.267px 325.267px 325.267px 325.267px 325.267px 325.267px 325.267px 325.267px 325.267px 325.267px 325.267px 325.267px 325.267px 325.267px 325.267px 325.267px 325.267px 325.267px 325.267px 325.267px 325.267px 325.267px 325.267px 325.267px 325.267px 325.267px 325.267px ">he Complete Enterprise Solution</tspan></text>
            </g>
            <g transform="matrix(1.13658,0,0,1.13658,-140.038,-195.232)">
                <path d="M589.03,336.344L589.03,244.107L658.302,244.107L658.302,263.002L610.552,263.002L610.552,280.667L637.302,280.667L637.302,299.561L610.552,299.561L610.552,317.449L658.302,317.449L658.302,336.344L589.03,336.344Z" style="fill:rgb(70,73,71);fill-rule:nonzero;"/>
                <path d="M249.791,336.344C242.136,336.344 235.292,335.136 229.258,332.723C223.222,330.309 218.204,326.777 214.2,322.125L225.592,303.932C229.36,307.937 233.305,310.997 237.427,313.117C241.547,315.237 245.669,316.296 249.791,316.296C252.087,316.296 254.074,315.914 255.752,315.148C257.43,314.384 258.754,313.28 259.726,311.836C260.698,310.394 261.184,308.643 261.184,306.582C261.184,304.228 260.521,302.373 259.196,301.018C257.872,299.664 255.854,298.413 253.147,297.265C250.438,296.117 246.935,294.659 242.637,292.893C238.986,291.363 235.484,289.625 232.127,287.683C228.772,285.74 226.048,283.267 223.958,280.264C221.868,277.261 220.824,273.464 220.824,268.871C220.824,263.279 222.383,258.348 225.505,254.079C228.624,249.811 232.937,246.47 238.442,244.055C243.947,241.642 250.29,240.434 257.475,240.434C261.948,240.434 266.644,241.112 271.56,242.466C276.475,243.821 281.73,245.881 287.325,248.648L278.052,266.045C270.457,261.159 263.656,258.715 257.651,258.715C254.295,258.715 251.615,259.453 249.614,260.923C247.612,262.396 246.611,264.25 246.611,266.487C246.611,268.606 247.656,270.448 249.747,272.007C251.836,273.568 254.397,274.951 257.43,276.157C260.461,277.365 263.361,278.469 266.129,279.469C270.662,281.118 274.68,282.944 278.184,284.945C281.686,286.948 284.439,289.552 286.441,292.761C288.442,295.97 289.444,300.254 289.444,305.611C289.444,312.146 287.869,317.696 284.719,322.258C281.569,326.821 277.036,330.309 271.119,332.723C265.202,335.136 258.092,336.344 249.791,336.344" style="fill:rgb(70,73,71);fill-rule:nonzero;"/>
                <path d="M339.252,336.344C332.363,336.344 325.872,335.108 319.778,332.635C313.685,330.162 308.312,326.732 303.661,322.346C299.009,317.961 295.359,312.867 292.71,307.068C290.061,301.269 288.736,295.043 288.736,288.389C288.736,281.972 289.985,275.879 292.489,270.108C294.991,264.338 298.523,259.216 303.086,254.741C307.649,250.268 313.007,246.735 319.16,244.143C325.312,241.553 331.979,240.257 339.164,240.257C344.992,240.257 350.6,241.083 355.987,242.731C361.374,244.38 365.715,246.499 369.014,249.09L359.741,267.37C355.324,264.133 349.849,262.513 343.314,262.513C337.72,262.513 332.981,263.749 329.096,266.222C325.21,268.695 322.251,271.905 320.22,275.848C318.189,279.793 317.173,283.944 317.173,288.301C317.173,293.069 318.262,297.412 320.44,301.327C322.618,305.243 325.695,308.348 329.669,310.644C333.644,312.94 338.249,314.089 343.49,314.089C346.728,314.089 349.761,313.647 352.586,312.763C355.413,311.881 357.797,310.703 359.741,309.231L369.014,327.512C365.657,330.044 361.331,332.149 356.031,333.826C350.732,335.505 345.138,336.344 339.252,336.344" style="fill:rgb(70,73,71);fill-rule:nonzero;"/>
                <path d="M418.381,313.206C422.973,313.206 427.152,312.146 430.922,310.026C434.689,307.907 437.662,304.979 439.841,301.24C442.018,297.501 443.109,293.189 443.109,288.301C443.109,283.414 442.018,279.103 439.841,275.364C437.662,271.625 434.689,268.695 430.922,266.576C427.152,264.457 422.973,263.396 418.381,263.396C413.729,263.396 409.534,264.457 405.796,266.576C402.056,268.695 399.097,271.625 396.92,275.364C394.741,279.103 393.653,283.414 393.653,288.301C393.653,293.189 394.741,297.501 396.92,301.24C399.097,304.979 402.056,307.907 405.796,310.026C409.534,312.146 413.729,313.206 418.381,313.206M418.293,336.345C408.342,336.345 399.362,334.298 391.357,330.206C383.349,326.115 376.99,320.463 372.28,313.25C367.569,306.039 365.215,297.722 365.215,288.301C365.215,278.882 367.556,270.565 372.236,263.352C376.917,256.142 383.276,250.489 391.312,246.396C399.349,242.305 408.342,240.258 418.293,240.258C428.3,240.258 437.309,242.305 445.317,246.396C453.322,250.489 459.668,256.142 464.348,263.352C469.029,270.565 471.369,278.882 471.369,288.301C471.369,297.722 469.029,306.039 464.348,313.25C459.668,320.463 453.322,326.115 445.317,330.206C437.309,334.298 428.3,336.345 418.293,336.345" style="fill:rgb(70,73,71);fill-rule:nonzero;"/>
                <path d="M528.156,313.294C532.865,313.294 537.028,312.22 540.649,310.071C544.273,307.922 547.112,304.979 549.173,301.239C551.233,297.501 552.264,293.218 552.264,288.389C552.264,283.563 551.204,279.264 549.083,275.495C546.966,271.728 544.109,268.755 540.517,266.576C536.925,264.398 532.804,263.309 528.156,263.309C523.504,263.309 519.337,264.398 515.659,266.576C511.979,268.755 509.08,271.713 506.96,275.452C504.84,279.191 503.78,283.502 503.78,288.389C503.78,293.158 504.825,297.428 506.916,301.195C509.005,304.964 511.906,307.922 515.616,310.071C519.322,312.22 523.504,313.294 528.156,313.294M477.375,339.886L477.375,243.084L504.487,243.084L504.487,254.124C508.136,249.708 512.67,246.294 518.087,243.879C523.504,241.465 529.33,240.257 535.572,240.257C544.284,240.257 552.044,242.348 558.842,246.529C565.644,250.709 571.001,256.419 574.918,263.661C578.831,270.903 580.792,279.116 580.792,288.301C580.792,297.369 578.845,305.538 574.961,312.809C571.075,320.081 565.762,325.821 559.02,330.029C552.279,334.238 544.67,336.344 536.189,336.344C530.009,336.344 524.181,335.063 518.704,332.502C513.23,329.941 508.49,326.307 504.487,321.595L504.487,355.747L493.236,355.747C484.476,355.747 477.375,348.646 477.375,339.886" style="fill:rgb(70,73,71);fill-rule:nonzero;"/>
                <path d="M666.541,336.554L706.174,287.873L672.151,243.898L710.607,243.898L726.171,264.89L741.733,243.898L780.101,243.898L746.078,287.873L785.8,336.554L746.168,336.554L726.171,310.947L706.174,336.554L666.541,336.554Z" style="fill:rgb(240,127,42);fill-rule:nonzero;"/>
                <path d="M418.914,283.033C418.914,281.907 419.271,280.867 419.87,280.01C419.434,279.94 418.996,279.875 418.541,279.875C413.871,279.875 410.085,283.661 410.085,288.331C410.085,293.001 413.871,296.786 418.541,296.786C423.211,296.786 426.997,293.001 426.997,288.331C426.997,288.069 426.943,287.821 426.919,287.565C426.125,288.04 425.206,288.331 424.212,288.331C421.286,288.331 418.914,285.959 418.914,283.033" style="fill:rgb(240,127,42);fill-rule:nonzero;"/>
                <path d="M527.008,283.033C527.008,281.907 527.364,280.867 527.963,280.01C527.528,279.94 527.089,279.875 526.634,279.875C521.965,279.875 518.179,283.661 518.179,288.331C518.179,293.001 521.965,296.786 526.634,296.786C531.304,296.786 535.09,293.001 535.09,288.331C535.09,288.069 535.036,287.821 535.013,287.565C534.218,288.04 533.299,288.331 532.306,288.331C529.38,288.331 527.008,285.959 527.008,283.033" style="fill:rgb(240,127,42);fill-rule:nonzero;"/>
            </g>
        </g>
        <g transform="matrix(5.29324,0,0,5.29324,-10161.9,-1347.56)">
            <circle cx="963" cy="4646" r="88" style="fill:rgb(240,127,42);"/>
        </g>
        <g transform="matrix(5.29324,0,0,5.29324,-11275.2,-493.172)">
            <circle cx="963" cy="4646" r="88" style="fill:rgb(240,127,42);"/>
        </g>
        <g transform="matrix(4.62179,0,0,4.62179,-10628.6,2626.39)">
            <circle cx="963" cy="4646" r="88" style="fill:white;"/>
        </g>
        <g transform="matrix(5.29324,0,0,5.29324,-9070.53,-572.571)">
            <circle cx="963" cy="4646" r="88" style="fill:rgb(240,127,42);"/>
        </g>
        <g transform="matrix(4.62179,0,0,4.62179,-8423.92,2546.99)">
            <circle cx="963" cy="4646" r="88" style="fill:white;"/>
        </g>
        <g transform="matrix(5.29324,0,0,5.29324,-10876.5,821.354)">
            <circle cx="963" cy="4646" r="88" style="fill:rgb(240,127,42);"/>
        </g>
        <g transform="matrix(5.29324,0,0,5.29324,-9439.8,821.354)">
            <circle cx="963" cy="4646" r="88" style="fill:rgb(240,127,42);"/>
        </g>
        <g transform="matrix(4.62179,0,0,4.62179,-8789.47,3938.86)">
            <circle cx="963" cy="4646" r="88" style="fill:white;"/>
        </g>
        <g transform="matrix(4.62179,0,0,4.62179,-10232.2,3940.54)">
            <circle cx="963" cy="4646" r="88" style="fill:white;"/>
        </g>
        <g transform="matrix(4.62179,0,0,4.62179,-9514.65,1770.45)">
            <circle cx="963" cy="4646" r="88" style="fill:white;"/>
        </g>
        <g transform="matrix(6.02544,0,0,6.02544,-6454.83,-4153.34)">
            <text x="203.023px" y="4540.81px" style="font-family:'OpenSans-Bold', 'Open Sans', sans-serif;font-weight:700;font-size:18px;fill:rgb(78,78,78);">O<tspan x="216.989px 229.954px 243.92px " y="4540.81px 4540.81px 4540.81px ">DOO</tspan></text>
            <text x="181.133px" y="4558.35px" style="font-family:'OpenSans-Bold', 'Open Sans', sans-serif;font-weight:700;font-size:18px;fill:rgb(78,78,78);">C<tspan x="192.243px 203.027px 214.497px 225.967px 236.242px 245.137px 252.591px 263.375px 271.189px " y="4558.35px 4558.35px 4558.35px 4558.35px 4558.35px 4558.35px 4558.35px 4558.35px 4558.35px ">onnectors</tspan></text>
        </g>
        <g transform="matrix(6.02544,0,0,6.02544,-5181.61,-3432.19)">
            <text x="179.206px" y="4540.81px" style="font-family:'OpenSans-Bold', 'Open Sans', sans-serif;font-weight:700;font-size:18px;fill:rgb(78,78,78);">O<tspan x="192.992px 203.843px 214.447px " y="4540.81px 4540.81px 4540.81px ">doo</tspan></text>
            <text x="136.922px" y="4562.8px" style="font-family:'OpenSans-Bold', 'Open Sans', sans-serif;font-weight:700;font-size:18px;fill:rgb(78,78,78);">W<tspan x="153.784px 164.389px 174.994px 185.923px 196.528px 213.663px 230.797px 240.892px 248.526px 257.241px " y="4562.8px 4562.8px 4562.8px 4562.8px 4562.8px 4562.8px 4562.8px 4562.8px 4562.8px 4562.8px ">ooCommerce</tspan></text>
            <text x="157.911px" y="4584.79px" style="font-family:'OpenSans-Bold', 'Open Sans', sans-serif;font-weight:700;font-size:18px;fill:rgb(78,78,78);">C<tspan x="168.841px 179.445px 190.735px 202.025px 212.12px 220.835px 228.108px 238.713px " y="4584.79px 4584.79px 4584.79px 4584.79px 4584.79px 4584.79px 4584.79px 4584.79px ">onnector</tspan></text>
        </g>
        <g transform="matrix(6.02544,0,0,6.02544,-5366.5,-1969.29)">
            <text x="133.87px" y="4540.81px" style="font-family:'OpenSans-Bold', 'Open Sans', sans-serif;font-weight:700;font-size:18px;fill:rgb(78,78,78);">Rest API</text>
            <text x="129.748px" y="4560.7px" style="font-family:'OpenSans-Bold', 'Open Sans', sans-serif;font-weight:700;font-size:18px;fill:rgb(78,78,78);">For Odoo</text>
        </g>
        <g transform="matrix(6.02544,0,0,6.02544,-6695.48,-1969.29)">
            <text x="104.831px" y="4540.81px" style="font-family:'OpenSans-Bold', 'Open Sans', sans-serif;font-weight:700;font-size:18px;fill:rgb(78,78,78);">Connector</text>
            <text x="109.692px" y="4560.7px" style="font-family:'OpenSans-Bold', 'Open Sans', sans-serif;font-weight:700;font-size:18px;fill:rgb(78,78,78);">with CMS</text>
        </g>
        <g transform="matrix(6.02544,0,0,6.02544,-8099.77,-4653.45)">
            <text x="290.399px" y="4766.27px" style="font-family:'OpenSans-Bold', 'Open Sans', sans-serif;font-weight:700;font-size:18px;fill:rgb(78,78,78);">Gtihub</text>
            <text x="274.447px" y="4787.15px" style="font-family:'OpenSans-Bold', 'Open Sans', sans-serif;font-weight:700;font-size:18px;fill:rgb(78,78,78);">Connector</text>
        </g>
    </g>
</svg>
